<svg width="62" height="62" viewBox="0 0 62 62" fill="none" xmlns="http://www.w3.org/2000/svg">
<g clip-path="url(#clip0_1_1000)">
<path d="M30.238 14.8663V1.93803C30.238 1.93803 27.8125 0.501465 25.3383 0.501465C22.8641 0.501465 21.5542 1.56742 20.3413 1.56742V14.8663C20.3413 14.8663 22.961 12.6885 25.2897 12.6885C27.6183 12.6885 29.9469 14.5883 30.238 14.8663Z" stroke="#007C38" stroke-width="1.5" stroke-linecap="round" stroke-linejoin="round"/>
<path d="M30.2378 14.8663V1.93803C30.2378 1.93803 32.6634 0.501465 35.1375 0.501465C37.6117 0.501465 38.9216 1.56742 40.1345 1.56742V14.8663C40.1345 14.8663 37.5148 12.6885 35.1861 12.6885C32.8575 12.6885 30.5289 14.5883 30.2378 14.8663Z" stroke="#007C38" stroke-width="1.5" stroke-linecap="round" stroke-linejoin="round"/>
<path d="M20.3412 2.59814H18.6069V15.0398H41.5295V2.59814H40.1346" stroke="#007C38" stroke-width="1.5" stroke-linecap="round" stroke-linejoin="round"/>
<path d="M18.6071 3.22412H16.7515V16.5694H29.2679L30.0372 17.3963C30.1452 17.5122 30.3338 17.5147 30.4453 17.4018L31.2327 16.6042H43.3125V3.22412H41.5296" stroke="#007C38" stroke-width="1.5" stroke-linecap="round" stroke-linejoin="round"/>
<path d="M14.1786 24.7188V11.7906C14.1786 11.7906 11.9018 10.354 9.57953 10.354C7.25729 10.354 6.02777 11.42 4.88965 11.42V23.0679C4.88965 23.0679 7.3484 22.1643 9.53412 22.1643C11.7198 22.1643 13.9053 24.4408 14.1786 24.7188Z" stroke="#007C38" stroke-width="1.5" stroke-linecap="round" stroke-linejoin="round"/>
<path d="M16.7513 16.5693V10.6685C15.2901 11.0911 14.1787 11.7909 14.1787 11.7909V24.7191C14.452 24.4411 16.6375 22.1646 18.8232 22.1646C21.0089 22.1646 23.4677 23.0682 23.4677 23.0682V16.5693H16.7513Z" stroke="#007C38" stroke-width="1.5" stroke-linecap="round" stroke-linejoin="round"/>
<path d="M4.88999 12.2251H3.36182V13.2908V24.7191H25.5322V16.5693" stroke="#007C38" stroke-width="1.5" stroke-linecap="round" stroke-linejoin="round"/>
<path d="M3.36186 13.2905H1.08154V26.1262L12.3973 26.1351C12.3973 26.1351 13.0158 26.9603 14.3501 26.9603C15.2961 26.9603 15.9752 26.4854 16.2299 26.1145L27.6184 26.1262V16.569" stroke="#007C38" stroke-width="1.5" stroke-linecap="round" stroke-linejoin="round"/>
<path d="M45.9922 24.7188V11.7906C45.9922 11.7906 48.2687 10.354 50.591 10.354C52.9132 10.354 54.1427 11.42 55.2811 11.42V23.0679C55.2811 23.0679 52.8224 22.1643 50.6367 22.1643C48.4509 22.1643 46.2652 24.4408 45.9922 24.7188Z" stroke="#007C38" stroke-width="1.5" stroke-linecap="round" stroke-linejoin="round"/>
<path d="M43.4195 16.5693V10.6685C44.8804 11.0911 45.9921 11.7909 45.9921 11.7909V24.7191C45.7185 24.4411 43.5333 22.1646 41.3476 22.1646C39.1619 22.1646 36.7031 23.0682 36.7031 23.0682V16.5693H43.4195Z" stroke="#007C38" stroke-width="1.5" stroke-linecap="round" stroke-linejoin="round"/>
<path d="M55.2812 12.2251H56.8093V13.2908V24.7191H34.6387V16.5693" stroke="#007C38" stroke-width="1.5" stroke-linecap="round" stroke-linejoin="round"/>
<path d="M56.8091 13.2905H59.0891V26.1262L47.7734 26.1351C47.7734 26.1351 47.1548 26.9603 45.8208 26.9603C44.8748 26.9603 44.1954 26.4854 43.9407 26.1145L32.5522 26.1262V16.569" stroke="#007C38" stroke-width="1.5" stroke-linecap="round" stroke-linejoin="round"/>
<path d="M35.9141 36.9229L31.0431 41.1858L25.9688 36.9229C25.9688 36.9229 30.9171 39.9 35.9141 36.9229Z" stroke="#1D0E00" stroke-width="1.5" stroke-linecap="round" stroke-linejoin="round"/>
<path d="M24.9985 61.5747L29.9408 40.2598" stroke="#1D0E00" stroke-width="1.5" stroke-linecap="round" stroke-linejoin="round"/>
<path d="M36.703 61.4357L32.1011 40.2598" stroke="#1D0E00" stroke-width="1.5" stroke-linecap="round" stroke-linejoin="round"/>
<path d="M29.4269 42.4761L33.2546 45.5672L27.4062 51.1911L35.4514 55.6757L25.5322 59.721" stroke="#1D0E00" stroke-width="1.5" stroke-linecap="round" stroke-linejoin="round"/>
<path d="M36.3307 59.7212L26.3799 55.6175L34.4023 50.8477L28.6579 45.7934L32.5528 42.3364" stroke="#1D0E00" stroke-width="1.5" stroke-linecap="round" stroke-linejoin="round"/>
<path d="M29.1417 39.5889L25.2896 42.8079H29.3495" stroke="#1D0E00" stroke-width="1.5" stroke-linecap="round" stroke-linejoin="round"/>
<path d="M32.8678 39.5889L36.3304 42.8079H32.6553" stroke="#1D0E00" stroke-width="1.5" stroke-linecap="round" stroke-linejoin="round"/>
<path d="M28.6576 45.7937L21.7363 51.099H40.2563L33.2546 45.5674" stroke="#1D0E00" stroke-width="1.5" stroke-linecap="round" stroke-linejoin="round"/>
<path d="M22.791 59.2116C0.523419 53.0255 1.25112 40.7228 0.596191 37.6646C6.05394 42.113 22.791 42.808 22.791 42.808" stroke="#03078B" stroke-width="1.5" stroke-linecap="round" stroke-linejoin="round"/>
<path d="M18.6647 50.0814C18.6647 50.0814 8.27895 48.5639 1.89062 43.8091" stroke="#03078B" stroke-width="1.5" stroke-linecap="round" stroke-linejoin="round"/>
<path d="M7.14551 37.6646C7.14551 37.6646 9.7367 51.9229 21.758 58.9036" stroke="#03078B" stroke-width="1.5" stroke-linecap="round" stroke-linejoin="round"/>
<path d="M16.7512 37.6646C16.7512 37.6646 16.5329 50.8708 22.209 55.7363C22.209 55.5973 14.1921 55.4249 8.99512 52.9391" stroke="#03078B" stroke-width="1.5" stroke-linecap="round" stroke-linejoin="round"/>
<path d="M38.9663 59.2116C61.2339 53.0255 60.5062 40.7228 61.1611 37.6646C55.7034 42.113 38.9663 42.808 38.9663 42.808" stroke="#03078B" stroke-width="1.5" stroke-linecap="round" stroke-linejoin="round"/>
<path d="M43.0928 50.0814C43.0928 50.0814 53.4785 48.5639 59.8668 43.8091" stroke="#03078B" stroke-width="1.5" stroke-linecap="round" stroke-linejoin="round"/>
<path d="M54.6118 37.6646C54.6118 37.6646 52.0203 51.9229 39.999 58.9036" stroke="#03078B" stroke-width="1.5" stroke-linecap="round" stroke-linejoin="round"/>
<path d="M45.0061 37.6646C45.0061 37.6646 45.2244 50.8708 39.5483 55.7363C39.5483 55.5973 47.565 55.4249 52.7622 52.9391" stroke="#03078B" stroke-width="1.5" stroke-linecap="round" stroke-linejoin="round"/>
<path d="M1.82959 31.7247H4.97849C4.86818 30.4961 4.05577 29.5224 2.66179 29.5224C2.12038 29.5224 1.64912 29.6642 1.21774 29.8438L1.00729 29.2105C1.48845 29.012 2.07032 28.8418 2.71215 28.8418C4.83819 28.8418 5.92159 30.2881 5.92159 32.1406C5.92159 34.2294 4.45717 35.4205 2.66179 35.4205C1.98998 35.4205 1.37813 35.2976 0.896973 35.0896L1.08734 34.4374C1.47855 34.6075 2.04033 34.7304 2.54157 34.7304C4.03598 34.7304 4.92843 33.7098 4.98897 32.3864H1.82959V31.7247Z" fill="#FF3E36"/>
<path d="M11.3688 28.9458V31.6112H14.6379V28.9458H15.5207V35.3165H14.6379V32.3294H11.3688V35.3165H10.4961V28.9458H11.3688Z" fill="#FF3E36"/>
<path d="M23.9765 32.3294H21.3492V34.6262H24.2775V35.3162H20.4766V28.9458H24.127V29.6356H21.3492V31.6491H23.9765V32.3294Z" fill="#FF3E36"/>
<path d="M29.7247 32.0932C29.9151 32.1405 30.1555 32.1594 30.4466 32.1594C31.4997 32.1594 32.1415 31.6773 32.1415 30.7982C32.1415 29.9572 31.5099 29.5507 30.5467 29.5507C30.166 29.5507 29.8749 29.579 29.7247 29.6169V32.0932ZM28.8521 29.0213C29.2732 28.9552 29.8248 28.8984 30.5269 28.8984C31.3894 28.8984 32.0213 29.0875 32.4224 29.4278C32.7936 29.7303 33.0142 30.1935 33.0142 30.7607C33.0142 31.337 32.8334 31.7907 32.4926 32.1216C32.0312 32.5848 31.2791 32.8211 30.4265 32.8211C30.166 32.8211 29.925 32.8114 29.7247 32.7644V35.3164H28.8521V29.0213Z" fill="#FF3E36"/>
<path d="M41.2186 28.9458V29.6356H38.5011V35.3165H37.6284V28.9458H41.2186Z" fill="#FF3E36"/>
<path d="M46.2344 28.9458V31.6302C46.2344 32.6413 46.2143 33.4732 46.1541 34.324L46.1742 34.3334C46.5153 33.6717 46.9362 32.9819 47.4281 32.2257L49.6138 28.9458H50.4865V35.3165H49.6642V32.6038C49.6642 31.5734 49.6741 30.8172 49.7448 30.0137L49.7146 30.0045C49.3833 30.7038 48.9219 31.4411 48.4609 32.1501L46.3447 35.3165H45.4121V28.9458H46.2344Z" fill="#FF3E36"/>
<path d="M58.5014 29.6071C58.3507 29.5788 58.0701 29.5318 57.6788 29.5318C56.8164 29.5318 56.084 29.8435 56.084 30.7226C56.084 31.4883 56.8065 31.9323 57.7589 31.9323C58.05 31.9323 58.3309 31.9323 58.5014 31.9231V29.6071ZM54.8408 35.3161C54.941 35.146 55.0312 34.9475 55.1115 34.7395C55.4026 34.0119 55.5828 33.1233 56.1344 32.6034C56.2951 32.4522 56.4953 32.3387 56.6962 32.282V32.2539C55.8634 32.1213 55.2018 31.5541 55.2018 30.6848C55.2018 30.127 55.4422 29.6828 55.8238 29.3897C56.2447 29.0686 56.9066 28.8984 57.7589 28.8984C58.3309 28.8984 58.9322 28.9457 59.3738 29.0305V35.3161H58.5014V32.5562H57.8596C57.4384 32.5562 57.1273 32.6412 56.8865 32.8681C56.4252 33.3124 56.2348 34.248 55.9941 34.8529C55.9239 35.0136 55.8739 35.146 55.7734 35.3161H54.8408Z" fill="#FF3E36"/>
</g>
<defs>
<clipPath id="clip0_1_1000">
<rect width="62" height="62" fill="white"/>
</clipPath>
</defs>
</svg>
